<svg id="Line" height="512" viewBox="0 0 64 64" width="512" xmlns="http://www.w3.org/2000/svg"><path d="m43.5 19a16 16 0 0 1 15.5 12h-9.5a4 4 0 0 0 0 8h10v7h-8a1 1 0 0 0 0 2h8v5a3 3 0 0 1 -3 3h-9v6a1 1 0 0 1 -1 1h-3v-16.28a2 2 0 1 0 -2 0v16.28h-3v-24.14a4 4 0 1 0 -2 0v24.14h-2.5v-16.28a2 2 0 1 0 -2 0v16.28h-3.5a1 1 0 0 1 -1-1v-27a16 16 0 0 1 16-16zm16 18v-2a16.52 16.52 0 0 0 -.14-2h-9.86a2 2 0 0 0 0 4zm-22 0a2 2 0 1 0 -2-2 2 2 0 0 0 2 2z" fill="#c4a2fc"/><path d="m15 39.37v6.63a5 5 0 0 0 5 5h10a5 5 0 0 0 5-5v-6.63a20.5 20.5 0 1 0 -20 0zm18 .42v3.21h-16v-3.21zm-8-22.79a1 1 0 1 1 1-1 1 1 0 0 1 -1 1zm5 32h-10a3 3 0 0 1 -3-3v-1h16v1a3 3 0 0 1 -3 3zm-5-46a18.49 18.49 0 0 1 8.75 34.79h-1.75v-5.38l2.71-2.7a1 1 0 0 0 .29-.71v-6.18a3 3 0 1 0 -2 0v5.77l-2.71 2.7a1 1 0 0 0 -.29.71v5.79h-4v-19a3 3 0 1 0 -2 0v19h-4v-5.79a1 1 0 0 0 -.29-.71l-2.71-2.7v-3.77a3 3 0 1 0 -2 0v4.18a1 1 0 0 0 .29.71l2.71 2.7v5.38h-1.75a18.49 18.49 0 0 1 8.75-34.79zm9 18a1 1 0 1 1 1-1 1 1 0 0 1 -1 1zm-18 2a1 1 0 1 1 1-1 1 1 0 0 1 -1 1z" fill="#151a6a"/></svg>